<svg width="220" height="220" viewBox="0 0 220 220" fill="none" xmlns="http://www.w3.org/2000/svg">
<rect width="220" height="220" rx="48" fill="#050506"/>
<rect x="16" y="16" width="188" height="188" rx="42" fill="url(#g)"/>
<rect x="31" y="31" width="158" height="158" rx="34" fill="#101016" fill-opacity=".9"/>
<path d="M61 63H155L96 137H157V158H58L117 84H61V63Z" fill="white"/>
<path d="M147 66V124.5C147 139.7 135.2 151 120.5 151C108.7 151 99 144.2 99 134.8C99 124.8 108.4 117.6 120.5 117.6C124.2 117.6 127.9 118.3 131 119.6V66H147Z" fill="#F5C451"/>
<circle cx="116" cy="135" r="14" fill="#F5C451"/>
<path d="M56 174H164" stroke="#F5C451" stroke-width="10" stroke-linecap="round"/>
<defs>
<linearGradient id="g" x1="16" y1="16" x2="204" y2="204" gradientUnits="userSpaceOnUse">
<stop stop-color="#F5C451"/>
<stop offset=".55" stop-color="#8B5CF6"/>
<stop offset="1" stop-color="#3F3F46"/>
</linearGradient>
</defs>
</svg>
